<?xml version="1.0" standalone="no"?>
<!DOCTYPE svg PUBLIC "-//W3C//DTD SVG 20010904//EN"
 "http://www.w3.org/TR/2001/REC-SVG-20010904/DTD/svg10.dtd">
<svg version="1.0" xmlns="http://www.w3.org/2000/svg"
 width="512.000000pt" height="512.000000pt" viewBox="0 0 512.000000 512.000000"
 preserveAspectRatio="xMidYMid meet">
<metadata>
Created by potrace 1.14, written by Peter Selinger 2001-2017
</metadata>
<g transform="translate(0.000000,512.000000) scale(0.100000,-0.100000)"
fill="#000000" stroke="none">
<path d="M2398 5115 c-1 -1 -37 -6 -78 -9 -154 -15 -182 -20 -355 -61 -269
-65 -495 -159 -733 -305 -40 -25 -81 -49 -90 -55 -10 -5 -47 -32 -82 -59 -207
-158 -355 -300 -490 -472 -30 -38 -57 -71 -60 -74 -3 -3 -29 -39 -57 -81 -135
-198 -261 -457 -329 -679 -19 -61 -73 -288 -79 -327 -4 -26 -8 -59 -10 -73
-27 -187 -27 -584 -1 -727 2 -10 7 -38 11 -63 4 -25 13 -70 20 -100 8 -30 17
-68 20 -85 3 -16 7 -34 9 -40 2 -5 6 -23 11 -40 44 -173 172 -465 278 -637 50
-81 201 -287 251 -342 139 -152 252 -259 381 -357 67 -51 224 -159 231 -159 2
0 23 -11 45 -26 147 -93 503 -237 663 -268 12 -3 49 -11 84 -19 34 -9 65 -15
67 -16 3 0 20 -2 38 -5 17 -3 48 -8 67 -11 215 -30 599 -26 767 9 15 3 46 9
68 12 22 3 92 19 155 35 63 17 122 32 130 34 8 1 35 11 60 20 25 9 70 26 100
38 574 214 1083 676 1364 1235 31 61 56 114 56 117 0 3 7 19 16 36 40 78 134
373 149 469 3 19 10 55 15 80 20 91 22 121 26 420 4 329 -2 394 -52 605 -63
269 -164 516 -300 742 -73 119 -125 194 -224 316 -76 94 -240 257 -339 337
-24 19 -48 40 -55 45 -30 28 -161 117 -246 168 -52 32 -102 62 -110 67 -128
78 -481 212 -645 244 -16 4 -41 9 -55 11 -85 18 -122 24 -175 30 -33 4 -69 9
-80 12 -22 5 -431 13 -437 8z m397 -59 c127 -13 236 -29 273 -40 9 -3 28 -7
42 -10 43 -7 152 -37 235 -63 528 -170 999 -528 1309 -993 207 -312 335 -639
396 -1017 35 -212 32 -606 -5 -770 -3 -12 -7 -40 -10 -64 -3 -23 -8 -45 -10
-49 -2 -4 -7 -22 -10 -40 -18 -102 -88 -319 -142 -440 -247 -553 -652 -982
-1178 -1248 -139 -70 -360 -156 -455 -177 -8 -2 -15 -4 -15 -5 0 -1 -7 -3 -15
-5 -8 -2 -26 -6 -40 -9 -248 -55 -367 -69 -600 -69 -194 -1 -298 9 -505 48
-188 35 -463 132 -645 228 -241 127 -431 268 -625 462 -270 269 -464 577 -592
938 -19 53 -36 105 -38 115 -3 9 -16 62 -30 117 -54 216 -70 350 -70 605 1
356 61 648 201 977 42 99 152 310 187 357 4 6 40 57 80 112 95 133 142 189
262 309 119 120 161 156 281 246 164 121 364 235 534 304 36 14 74 30 85 35
20 9 206 69 235 75 165 38 293 60 415 71 33 3 61 7 62 8 5 5 327 -2 388 -8z"/>
<path d="M2647 4934 c-1 -1 -46 -4 -100 -7 -54 -3 -101 -8 -104 -11 -4 -3 2
-6 13 -7 10 0 48 -3 84 -5 83 -7 150 3 150 21 0 11 -33 18 -43 9z"/>
<path d="M2230 4920 c-80 -19 -119 -33 -114 -41 3 -5 8 -8 12 -5 4 2 39 7 77
11 92 8 117 15 112 29 -4 12 -48 15 -87 6z"/>
<path d="M2830 4894 c58 -27 174 -41 186 -23 11 18 11 18 -118 33 -26 3 -64 8
-85 11 -37 4 -37 4 17 -21z"/>
<path d="M1966 4850 c-27 -11 -73 -24 -103 -30 -70 -15 -60 -28 18 -23 64 4
150 37 157 61 5 17 -14 15 -72 -8z"/>
<path d="M3105 4860 c4 -6 10 -9 13 -6 3 3 10 2 16 -3 11 -9 91 -35 139 -45
20 -5 27 -3 27 8 0 18 -80 45 -153 52 -34 4 -47 2 -42 -6z"/>
<path d="M1625 4737 c-93 -49 -125 -69 -125 -78 0 -8 148 53 191 78 26 16 40
44 22 42 -5 0 -44 -19 -88 -42z"/>
<path d="M3440 4740 c72 -40 182 -81 198 -75 22 8 -12 27 -121 67 -90 32 -129
37 -77 8z"/>
<path d="M3730 4620 c0 -16 80 -90 121 -110 41 -21 79 -26 79 -10 0 5 -19 19
-42 31 -24 12 -69 39 -100 60 -32 22 -58 35 -58 29z"/>
<path d="M1352 4609 c-32 -12 -129 -87 -136 -105 -5 -13 0 -12 27 3 157 93
159 95 140 106 -5 3 -18 1 -31 -4z"/>
<path d="M3990 4453 c0 -13 109 -113 138 -126 67 -31 -3 57 -74 93 -16 8 -37
21 -46 29 -10 8 -18 10 -18 4z"/>
<path d="M1098 4418 c-18 -18 -58 -52 -87 -75 -63 -50 -45 -57 31 -12 54 32
108 85 108 107 0 20 -16 14 -52 -20z"/>
<path d="M826 4168 c-32 -40 -64 -81 -72 -91 -8 -10 -14 -23 -12 -28 4 -11 87
73 132 134 19 25 26 41 19 48 -6 6 -29 -15 -67 -63z"/>
<path d="M4261 4188 c64 -82 125 -140 144 -137 13 3 -3 25 -71 92 -94 94 -126
113 -73 45z"/>
<path d="M4470 3952 c21 -77 91 -182 122 -182 17 0 7 21 -47 97 -89 127 -86
123 -75 85z"/>
<path d="M623 3938 c-21 -24 -39 -55 -73 -128 l-21 -45 34 37 c52 57 101 138
90 149 -6 6 -17 1 -30 -13z"/>
<path d="M4650 3670 c34 -87 70 -151 81 -144 18 10 1 55 -48 127 -25 37 -47
67 -49 67 -2 0 5 -23 16 -50z"/>
<path d="M478 3680 c-5 -17 -28 -65 -49 -107 -21 -42 -37 -78 -35 -80 3 -3 45
43 74 82 14 18 42 95 42 115 0 30 -20 24 -32 -10z"/>
<path d="M2467 3634 c-1 -1 -40 -5 -87 -8 -47 -3 -96 -8 -110 -10 -14 -2 -51
-7 -83 -11 -74 -10 -90 -24 -81 -79 3 -22 8 -52 9 -66 5 -35 14 -201 20 -360
6 -175 15 -381 20 -495 3 -49 7 -151 11 -225 14 -307 10 -398 -20 -429 -13
-12 -24 -4 -83 56 -53 55 -80 74 -122 88 -70 23 -157 22 -222 -3 -14 -6 -57
-18 -95 -27 -113 -29 -206 -90 -244 -163 -25 -49 -36 -148 -21 -194 23 -70
121 -139 219 -154 23 -3 44 -10 47 -14 9 -15 162 0 245 25 148 44 228 90 326
185 41 40 81 164 92 285 13 145 6 602 -13 795 -2 19 -6 67 -10 105 -3 39 -8
81 -10 95 -2 14 -6 52 -10 84 -3 32 -8 62 -10 67 -12 18 12 23 160 33 50 4
106 9 125 11 19 2 64 7 100 10 36 3 81 8 100 10 19 2 69 7 110 10 41 3 86 8
100 10 14 3 63 7 110 10 47 2 86 5 88 6 3 2 14 5 62 13 25 5 57 15 72 22 15 8
31 14 36 14 4 0 8 -100 8 -222 0 -201 7 -441 19 -618 3 -36 6 -155 7 -265 1
-175 -2 -228 -17 -295 -2 -8 -4 -22 -4 -30 -1 -9 -16 3 -37 28 -58 69 -120 95
-236 99 -59 1 -113 -3 -140 -11 -24 -7 -45 -13 -48 -13 -18 0 -91 -30 -120
-48 -101 -65 -126 -131 -86 -227 27 -63 135 -148 210 -164 144 -32 239 -20
351 43 114 63 202 227 229 424 8 59 9 244 2 384 -3 61 -8 162 -11 225 -3 63
-8 147 -10 185 -2 39 -6 120 -10 180 -5 102 -10 168 -20 270 -3 22 -8 74 -11
115 -9 97 -7 90 -27 127 -23 43 -92 77 -182 92 -87 13 -686 35 -698 25z m233
-85 c0 -6 -29 -9 -74 -8 -41 2 -73 6 -70 10 7 11 144 10 144 -2z m76 -4 c-10
-8 -23 -12 -28 -9 -14 9 2 24 25 24 21 -1 21 -1 3 -15z m311 3 c22 -2 2 -18
-23 -18 -13 0 -24 -3 -24 -7 0 -5 20 -7 44 -7 24 1 49 -2 57 -7 10 -6 3 -9
-21 -10 -47 -2 -73 1 -85 11 -5 4 -30 8 -55 9 -25 2 -50 3 -57 4 -7 0 -14 6
-17 13 -4 10 -11 10 -35 1 -31 -11 -48 -6 -37 11 5 8 158 8 253 0z m-659 -20
c-18 -26 -38 -35 -38 -16 0 18 20 38 38 38 12 0 12 -3 0 -22z m-68 6 c0 -4
-13 -29 -30 -56 -16 -26 -30 -52 -30 -58 0 -5 -5 -12 -12 -16 -8 -5 -9 0 -4
17 4 13 8 29 10 34 2 6 6 24 11 40 4 17 10 33 12 38 5 9 43 10 43 1z m929 -91
c-11 -30 -43 -59 -86 -79 -49 -21 -48 -18 2 39 25 28 48 62 52 75 5 21 7 22
24 6 14 -12 16 -21 8 -41z m-774 17 c-3 -5 -12 -10 -18 -10 -7 0 -6 4 3 10 19
12 23 12 15 0z m-253 -17 c-5 -10 -13 -36 -17 -58 -9 -50 -15 -61 -26 -44 -14
22 -10 45 12 83 21 36 48 52 31 19z m148 -76 c-16 -30 -27 -56 -24 -59 3 -3
-13 -9 -36 -13 -23 -4 -44 -4 -47 -1 -8 8 27 47 37 41 4 -2 25 16 48 40 23 25
44 45 47 45 3 0 -8 -24 -25 -53z m314 15 c-8 -18 -22 -32 -30 -32 -17 0 -12
10 20 47 26 30 30 24 10 -15z m152 3 l37 -25 -40 0 c-37 0 -40 2 -40 25 0 14
1 25 3 25 2 0 20 -11 40 -25z m204 5 c-6 -11 -16 -20 -23 -21 -7 0 -41 -2 -77
-4 l-65 -4 55 13 c30 7 66 18 80 24 37 16 42 14 30 -8z m-260 -14 c0 -8 -9
-16 -20 -19 -22 -6 -27 12 -8 31 13 13 28 7 28 -12z m-346 -28 c-17 -33 -31
-48 -47 -48 -5 0 6 18 23 40 38 48 46 51 24 8z m57 -21 c-13 -12 -20 -15 -15
-7 12 22 28 39 33 34 3 -3 -6 -15 -18 -27z m599 -1376 c0 -5 -9 -7 -20 -4 -11
3 -20 7 -20 9 0 2 9 4 20 4 11 0 20 -4 20 -9z m-243 -18 c-8 -10 -27 -40 -41
-68 -13 -27 -32 -59 -40 -70 -14 -18 -14 -15 0 20 35 86 66 135 87 135 6 0 3
-8 -6 -17z m313 -23 c29 -25 19 -23 -27 5 -18 11 -33 24 -33 28 0 9 26 -5 60
-33z m-416 -47 c-55 -81 -59 -85 -50 -53 3 14 8 36 12 50 l5 25 -15 -25 c-8
-14 -15 -19 -16 -12 0 18 58 70 84 75 12 2 22 5 24 6 1 0 -18 -29 -44 -66z
m-1071 22 c-3 -14 3 -39 16 -60 l21 -36 -32 3 c-31 3 -32 5 -36 57 -2 37 0 56
9 62 19 12 27 3 22 -26z m1352 17 c-3 -3 -11 0 -18 7 -9 10 -8 11 6 5 10 -3
15 -9 12 -12z m-192 -97 c-9 -19 -18 -33 -20 -31 -6 6 19 66 28 66 5 0 1 -16
-8 -35z m312 -38 c-6 -22 -35 -35 -35 -15 0 4 5 8 11 8 8 0 10 13 6 37 -6 35
-6 35 9 15 8 -12 12 -31 9 -45z m-122 -8 c-5 -18 -14 -34 -20 -36 -9 -3 -9 4
-1 29 6 18 13 40 16 48 9 29 13 -8 5 -41z m-1465 -34 c38 -11 24 -22 -25 -19
-52 4 -73 22 -73 61 l0 24 38 -30 c20 -16 47 -32 60 -36z m1155 25 c-10 -26
-20 -37 -26 -31 -6 6 -2 21 9 40 26 44 35 38 17 -9z m40 -50 c-6 -22 -21 -35
-30 -26 -5 5 24 46 33 46 1 0 0 -9 -3 -20z m-853 -10 c0 -15 -83 -59 -137 -73
-26 -7 -73 -12 -103 -11 -54 1 -130 25 -130 41 0 4 39 8 88 8 112 1 251 21
269 39 9 9 13 7 13 -4z m905 -11 c-9 -28 14 -44 31 -21 12 15 13 15 11 -5 -1
-26 -14 -28 -51 -12 -24 11 -24 13 -8 35 21 29 25 30 17 3z"/>
<path d="M327 3343 c-24 -92 -25 -98 -27 -98 -1 0 -3 -18 -6 -40 -6 -55 9 -30
40 65 35 108 41 140 24 140 -9 0 -20 -25 -31 -67z"/>
<path d="M4775 3377 c7 -41 36 -136 56 -179 12 -27 20 -33 31 -23 6 7 -30 109
-66 185 -25 53 -26 54 -21 17z"/>
<path d="M4868 3038 c-4 -59 10 -148 28 -176 26 -40 32 -14 14 65 -10 43 -18
80 -18 83 0 3 0 20 -1 38 -2 47 -19 39 -23 -10z"/>
<path d="M229 3023 c-12 -31 -19 -197 -8 -185 9 8 28 98 36 165 6 53 -11 65
-28 20z"/>
<path d="M4920 2684 c0 -99 11 -143 28 -116 10 14 7 101 -4 142 -4 14 -9 34
-11 44 -9 47 -13 23 -13 -70z"/>
<path d="M207 2763 c-3 -4 -4 -36 -3 -70 2 -34 0 -85 -4 -113 -4 -27 -3 -50 1
-50 16 0 37 95 35 157 -2 57 -16 97 -29 76z"/>
<path d="M198 2430 c-2 -8 4 -61 14 -119 10 -59 18 -109 18 -113 0 -5 4 -8 9
-8 16 0 -5 210 -24 236 -10 14 -13 14 -17 4z"/>
<path d="M4913 2422 c0 -9 -4 -35 -7 -57 -17 -97 -11 -194 10 -173 10 11 17
235 7 241 -5 3 -9 -2 -10 -11z"/>
<path d="M4880 2088 c0 -6 -6 -19 -13 -27 -36 -42 -62 -170 -40 -192 10 -10
18 14 38 106 2 11 10 44 18 73 8 28 10 52 6 52 -5 0 -9 -5 -9 -12z"/>
<path d="M245 2061 c-13 -21 24 -142 53 -171 12 -13 14 -13 9 5 -3 11 -8 36
-12 55 -10 59 -29 120 -37 120 -4 0 -9 -4 -13 -9z"/>
<path d="M4768 1716 c-21 -46 -38 -93 -38 -106 0 -22 1 -22 19 -6 20 18 49
101 57 160 2 20 3 36 2 36 -2 0 -20 -38 -40 -84z"/>
<path d="M330 1780 c0 -5 12 -35 26 -67 15 -32 35 -80 46 -108 l18 -50 -5 61
c-4 62 -36 152 -58 166 -17 11 -27 10 -27 -2z"/>
<path d="M457 1484 c-5 -8 43 -96 63 -114 3 -3 18 -24 33 -47 43 -68 49 -50 9
28 -41 79 -95 148 -105 133z"/>
<path d="M4629 1438 c-65 -102 -92 -168 -69 -168 9 0 44 56 45 72 0 3 4 10 8
14 18 19 64 134 53 134 -1 0 -18 -24 -37 -52z"/>
<path d="M4480 1183 c-69 -45 -130 -124 -130 -165 1 -22 2 -21 28 9 15 17 39
49 54 70 15 21 39 53 54 71 30 36 29 39 -6 15z"/>
<path d="M646 1162 c-3 -6 1 -15 9 -22 8 -7 15 -17 15 -23 0 -6 26 -34 58 -63
56 -53 86 -71 58 -36 -8 9 -36 46 -63 81 -48 65 -66 80 -77 63z"/>
<path d="M844 949 c-6 -10 156 -171 165 -163 2 2 -13 29 -34 60 -42 60 -119
122 -131 103z"/>
<path d="M4270 928 c-119 -105 -138 -128 -104 -128 19 0 100 83 127 129 22 38
21 38 -23 -1z"/>
<path d="M1081 721 c-8 -5 18 -28 81 -68 149 -96 173 -92 39 6 -83 61 -104 72
-120 62z"/>
<path d="M3950 667 c-74 -55 -110 -97 -83 -97 8 0 85 61 166 129 18 16 23 31
10 30 -5 0 -46 -28 -93 -62z"/>
<path d="M3703 513 c-71 -24 -148 -77 -137 -94 5 -10 33 -1 54 16 8 7 48 29
88 50 39 20 72 38 72 40 0 7 -38 1 -77 -12z"/>
<path d="M1386 511 c-8 -13 24 -38 84 -65 74 -33 100 -40 100 -27 0 6 -5 11
-11 11 -6 0 -25 10 -42 23 -61 43 -123 71 -131 58z"/>
<path d="M1650 390 c-17 -10 -5 -17 85 -45 40 -13 87 -31 104 -40 47 -24 37
-4 -17 32 -69 47 -144 70 -172 53z"/>
<path d="M3401 357 c-52 -17 -97 -38 -99 -46 -9 -29 88 3 181 59 44 27 27 25
-82 -13z"/>
<path d="M1963 274 c-10 -7 -13 -14 -8 -14 6 0 39 -5 75 -11 107 -17 176 -22
165 -12 -8 8 -103 31 -197 48 -9 1 -25 -3 -35 -11z"/>
<path d="M3137 284 c-1 -1 -20 -5 -42 -8 -73 -12 -155 -36 -155 -47 0 -18 22
-16 121 12 101 30 145 50 100 46 -12 -1 -23 -2 -24 -3z"/>
<path d="M2672 229 c-48 -9 -62 -16 -62 -31 0 -7 20 -8 63 -3 34 4 89 7 122 7
54 0 57 1 35 13 -33 17 -104 23 -158 14z"/>
<path d="M2326 212 c-12 -19 21 -29 89 -27 101 3 119 4 113 10 -14 15 -194 29
-202 17z"/>
</g>
</svg>
